# xmcd
#
# Track frame offsets: 
#        150
#        19026
#        33617
#        53075
#        70323
#        90480
#        105013
#        129146
#        145070
#        159651
#        187261
#        203110
#        219670
#        236417
#        261698
#        274449
#
# Disc length: 3849 seconds
#
# Revision: 0
# Processed by: cddbd v1.5.2PL0 Copyright (c) Steve Scherf et al.
# Submitted via: ExactAudioCopy v0.99pb5
#
DISCID=e90f0710
DTITLE=Elmore D - Back to Hèsta
DYEAR=2012
DGENRE=Blues
TTITLE0=Vègn' tot chal
TTITLE1=New Orleans stop time
TTITLE2=Poqwè m'as-s' fêt çoula ?
TTITLE3=Since my baby's been gone
TTITLE4=Come on in
TTITLE5=Sloppy drunk again
TTITLE6=Roll dem bones
TTITLE7=You gotta run me down
TTITLE8=Nèl vind nin, nèl tape nin
TTITLE9=Confessin' the Moûse
TTITLE10=Li spér
TTITLE11=Dji k'nohe ossi Bonie Moronie
TTITLE12=Sloppy drunk
TTITLE13=Back to Hèsta
TTITLE14=Dj'a on trô è m' cèrvê
TTITLE15=Roll them bones
EXTD=
EXTT0=
EXTT1=
EXTT2=
EXTT3=
EXTT4=
EXTT5=
EXTT6=
EXTT7=
EXTT8=
EXTT9=
EXTT10=
EXTT11=
EXTT12=
EXTT13=
EXTT14=
EXTT15=
PLAYORDER=
